M48
; DRILL file {KiCad 7.0.5} date Fri Feb  2 20:29:14 2024
; FORMAT={-:-/ absolute / metric / decimal}
; #@! TF.CreationDate,2024-02-02T20:29:14+01:00
; #@! TF.GenerationSoftware,Kicad,Pcbnew,7.0.5
; #@! TF.FileFunction,MixedPlating,1,2
FMAT,2
METRIC
; #@! TA.AperFunction,Plated,PTH,ViaDrill
T1C0.300
; #@! TA.AperFunction,Plated,PTH,ComponentDrill
T2C0.600
; #@! TA.AperFunction,Plated,PTH,ComponentDrill
T3C0.650
; #@! TA.AperFunction,Plated,PTH,ComponentDrill
T4C0.850
; #@! TA.AperFunction,Plated,PTH,ComponentDrill
T5C0.910
; #@! TA.AperFunction,Plated,PTH,ComponentDrill
T6C0.950
; #@! TA.AperFunction,Plated,PTH,ComponentDrill
T7C1.000
; #@! TA.AperFunction,Plated,PTH,ComponentDrill
T8C1.050
; #@! TA.AperFunction,Plated,PTH,ComponentDrill
T9C1.100
; #@! TA.AperFunction,Plated,PTH,ComponentDrill
T10C1.300
; #@! TA.AperFunction,Plated,PTH,ComponentDrill
T11C2.200
; #@! TA.AperFunction,Plated,PTH,ComponentDrill
T12C3.740
; #@! TA.AperFunction,NonPlated,NPTH,ComponentDrill
T13C0.600
; #@! TA.AperFunction,NonPlated,NPTH,ComponentDrill
T14C0.900
; #@! TA.AperFunction,NonPlated,NPTH,ComponentDrill
T15C2.200
%
G90
G05
T1
X108.745Y-110.5
X110.85Y-110.5
X112.75Y-110.5
X116.3Y-126.1
X117.7Y-108.85
X117.7Y-119.9
X117.78Y-121.6
X119.1Y-145.0
X119.1Y-148.2
X119.3Y-135.2
X119.3Y-139.2
X119.835Y-124.235
X119.9Y-109.0
X119.9Y-125.505
X121.9Y-145.0
X121.9Y-147.4
X122.5Y-140.4
X122.7Y-137.4
X125.1Y-145.0
X125.1Y-146.8
X125.3Y-141.8
X125.5Y-139.4
X135.295Y-145.705
X135.5Y-125.5
X137.55Y-141.9
X137.68Y-109.92
X138.3Y-121.7
X138.6Y-125.85
X139.2Y-120.3
X139.55Y-126.75
X140.05Y-122.215
X140.9Y-128.2
X141.05Y-133.0
X143.1Y-133.0
X143.2Y-106.3
X143.2Y-111.4
X143.5Y-136.4
X144.643Y-134.816
X144.8Y-135.8
X144.88Y-119.14
X145.0Y-133.5
X145.3Y-110.9
X145.9Y-128.1
X146.1Y-118.8
X146.226Y-115.226
X146.474Y-121.226
X146.8Y-133.3
X146.8Y-136.9
X146.9Y-114.55
X146.999Y-123.2
X147.1Y-129.1
X147.4Y-116.4
X147.924Y-115.224
X148.6Y-114.55
X148.8Y-116.7
X148.9Y-135.25
X149.688Y-131.149
X149.85Y-109.45
X152.8Y-132.8
X153.1Y-109.465
X153.85Y-132.1
X154.2Y-106.9
X154.7Y-116.35
X155.08Y-129.85
X155.1Y-141.1
X155.5Y-132.7
X156.3Y-117.1
X156.4Y-133.8
X156.4Y-137.8
X157.7Y-129.7
X157.722Y-124.999
X158.5Y-109.465
X158.5Y-112.005
X158.5Y-113.305
X159.6Y-114.5
X159.7Y-120.3
X160.4Y-138.1
X160.5Y-123.6
X161.0Y-122.3
X161.05Y-130.85
X161.6Y-121.2
X161.7Y-117.0
X162.6Y-115.9
X164.3Y-138.0
X164.7Y-126.8
X165.1Y-114.4
X165.2Y-128.5
X166.31Y-68.0
X166.7Y-61.7
X167.4Y-128.5
X167.5Y-115.2
X167.5Y-119.0
X168.7Y-113.0
X168.7Y-121.5
X169.9Y-113.8
X169.9Y-115.17
X169.9Y-119.869
X170.0Y-121.1
X170.1Y-74.4
X170.49Y-103.0
X171.875Y-104.6
X171.96Y-77.3
X172.6Y-109.6
X172.81Y-75.8
X173.06Y-102.06
X174.36Y-80.75
X174.6Y-71.6
X175.0Y-129.75
X175.2Y-86.3
T2
X142.8Y-129.0
X144.07Y-129.0
T3
X155.33Y-109.465
X155.33Y-110.735
X155.33Y-112.005
X155.33Y-113.275
X155.33Y-114.545
X156.6Y-109.465
X156.6Y-110.735
X156.6Y-112.005
X156.6Y-113.275
X156.6Y-114.545
T4
X84.5Y-73.5
X84.5Y-81.8
X157.9Y-76.0
X157.9Y-81.0
T5
X147.8Y-147.93
X147.8Y-150.47
T6
X152.79Y-99.23
X152.79Y-101.77
X155.33Y-99.23
X155.33Y-101.77
X157.87Y-99.23
X157.87Y-101.77
X160.41Y-99.23
X160.41Y-101.77
T7
X98.21Y-61.25
X98.21Y-71.25
X98.21Y-86.25
X98.21Y-96.25
X133.21Y-61.25
X133.21Y-66.25
X133.21Y-91.25
X133.21Y-96.25
X141.7Y-147.96
X141.7Y-150.5
X154.0Y-147.96
X154.0Y-150.5
T8
X147.159Y-60.375
X147.159Y-70.375
X161.26Y-60.375
X161.26Y-70.375
T9
X135.48Y-117.0
X138.02Y-117.0
X140.56Y-117.0
X143.1Y-117.0
T10
X106.3Y-136.1
X106.3Y-146.6
X111.3Y-136.1
X111.3Y-146.6
X116.3Y-136.1
X116.3Y-146.6
T11
X147.3Y-85.0
X162.3Y-148.0
T12
X91.96Y-60.0
X91.96Y-97.5
X139.46Y-60.0
X139.46Y-97.5
T13
X172.625Y-120.52
T14
X176.75Y-126.95
X176.75Y-129.95
T15
X87.2Y-147.9
T2
G00X171.4Y-113.2
M15
G01X172.4Y-113.2
M16
G05
G00X171.4Y-121.84
M15
G01X172.4Y-121.84
M16
G05
G00X175.075Y-113.2
M15
G01X176.375Y-113.2
M16
G05
G00X175.075Y-121.84
M15
G01X176.375Y-121.84
M16
G05
T13
G00X172.625Y-114.645
M15
G01X172.625Y-114.395
M16
G05
T0
M30
